<?xml version="1.0" encoding="utf-8"?>
<svg version="1.0" id="Layer_1" xmlns="http://www.w3.org/2000/svg" xmlns:xlink="http://www.w3.org/1999/xlink" x="0px" y="0px"
	 viewBox="0 0 393.1 367.8" style="enable-background:new 0 0 393.1 367.8;" xml:space="preserve">
<style type="text/css">
	.st0{fill:#FFFFFF;}
</style>
<g id="Page-1">
	<g id="Home---Mobile" transform="translate(-175.000000, -1279.000000)">
		<g id="Bitmap" transform="translate(32.308290, 1230.139950)">
			<g>
				<path class="st0" d="M535.79,135.78c-1.09,1.3-2.29,2.53-3.26,3.92c-48.92,70.7-97.82,141.4-146.72,212.11
					c-0.4,0.59-0.86,1.14-1.58,2.09c-12-8.43-23.92-16.79-33.68-23.64c-6.29,5.21-12.03,9.88-17.69,14.65
					c-13.28,11.19-29.08,16.38-45.75,19.83c-16.17,3.34-32.25,7.08-48.37,10.67c-1.11,0.25-2.19,0.62-3.7,1.05
					c2.2,7.38,4.33,14.55,6.6,22.17c-19.54,5.98-39,11.94-58.98,18.05c-13.33-44.7-26.55-89.01-39.97-134.02
					c19.76-5.95,39.22-11.81,58.85-17.73c0.78,2.04,1.38,3.64,2.23,5.88c1.01-1.41,1.85-2.5,2.6-3.64
					c16.49-25.41,33.02-50.8,49.44-76.26c5.66-8.78,13.26-14.77,23.33-17.72c18.07-5.28,36.14-10.57,54.12-16.14
					c2.5-0.77,5.17-2.66,6.67-4.8c23.6-33.74,47.02-67.6,70.49-101.43c0.41-0.59,0.85-1.17,1.41-1.94
					c41.37,28.72,82.67,57.38,123.97,86.05C535.79,135.2,535.79,135.49,535.79,135.78z M230.49,361.05
					c0.91-0.12,1.47-0.15,2.02-0.27c18.8-4.19,37.55-8.62,56.41-12.51c19.3-3.99,34.99-13.34,46.72-29.3
					c4.29-5.84,8.96-11.4,13.46-17.08c14.4-18.19,28.86-36.33,43.17-54.6c6.19-7.9,5.51-16.55-1.4-23.02
					c-6.5-6.08-15.46-6.2-22.5-0.34c-4.1,3.41-8.24,6.78-12.38,10.13c-12.5,10.12-25.01,20.22-37.59,30.39
					c-12.23-7.31-24.35-14.55-36.72-21.94c13.91-21.95,27.55-43.49,41.79-65.95c-13.43,3.99-25.56,7.87-37.84,11.16
					c-7.78,2.08-13.26,6.49-17.55,13.17c-16.43,25.62-33.01,51.15-49.68,76.61c-2.48,3.79-5.8,7.04-9.42,11.38
					C215.85,311.95,223.16,336.46,230.49,361.05z M363.07,147.05c23.05-11.79,49.74-6.27,66.44,5.85
					c22.11,16.04,33.7,36.98,28.85,66.27c18.86-27.26,37.12-53.63,55.54-80.25c-32.87-22.9-65.38-45.56-98.13-68.38
					C398.02,96.3,380.54,121.68,363.07,147.05z M412.26,237.48c19.66,0.03,34.5-17.1,31.65-36.12
					c-4.13-27.55-32.13-48.9-59.55-44.51c-30.64,4.91-33.85,33.83-22.2,51.78C383.25,195.72,411.8,210.45,412.26,237.48z
					 M162.16,293.41c10.41,34.85,20.67,69.17,31,103.76c9.86-3.02,19.22-5.89,29-8.89c-10.37-34.82-20.63-69.24-30.99-104
					C181.28,287.4,171.94,290.34,162.16,293.41z M380.35,332.2c20.17-29.2,40.15-58.14,60.14-87.07c-9.68,5.5-19.71,8.24-30.56,8.39
					c-1.41,0.02-3.22,1.08-4.15,2.23c-8.13,10.02-16.1,20.18-24.12,30.29c-7.91,9.98-15.81,19.96-23.91,30.2
					C365.39,321.63,372.69,326.79,380.35,332.2z M339.9,180c-12.04,19.01-24.09,38.03-36.27,57.26c4.15,2.52,7.8,4.86,11.59,6.93
					c0.87,0.48,2.63,0.49,3.34-0.08c10.27-8.23,20.43-16.59,30.75-25.02C342.23,206.88,339.03,194.07,339.9,180z"/>
				<path class="st0" d="M448.47,143.84c-7.46-0.1-13.12-5.87-13.05-13.33c0.07-7.37,5.97-13.2,13.29-13.13
					c7.61,0.08,13.44,6.04,13.29,13.61C461.86,138.37,456,143.93,448.47,143.84z"/>
			</g>
			<g>
			</g>
		</g>
	</g>
</g>
</svg>
