<?xml version="1.0" encoding="UTF-8"?>
<svg width="42px" height="53px" viewBox="0 0 42 53" version="1.1" xmlns="http://www.w3.org/2000/svg" xmlns:xlink="http://www.w3.org/1999/xlink">
    <title>clipboard</title>
    <defs>
        <filter id="filter-1">
            <feColorMatrix in="SourceGraphic" type="matrix" values="0 0 0 0 1.000000 0 0 0 0 1.000000 0 0 0 0 1.000000 0 0 0 1.000000 0"></feColorMatrix>
        </filter>
    </defs>
    <g id="Page-1" stroke="none" stroke-width="1" fill="none" fill-rule="evenodd">
        <g id="clipboard" transform="translate(-366.000000, -683.000000)" filter="url(#filter-1)">
            <g transform="translate(366.468041, 683.993597)">
                <path d="M35.6499681,6.81128929 L30.9467517,6.81128929 L30.9467517,4.70724374 C30.9467517,4.02650569 30.2041822,3.71711162 29.5234442,3.71711162 L25.8723098,3.71711162 C25.005959,1.2417221 22.8399636,0.00402733485 20.364574,0.00402733485 C17.9164282,-0.0880091116 15.6896674,1.41312073 14.8568383,3.71711162 L11.2675353,3.71711162 C10.5867973,3.71711162 9.90605923,4.02650569 9.90605923,4.70724374 L9.90605923,6.81128929 L5.20272437,6.81128929 C2.41557175,6.8410205 0.135389522,9.03970843 0.00438268793,11.8238998 L0.00438268793,47.283754 C0.00438268793,50.0067062 2.47977221,51.9869704 5.20272437,51.9869704 L35.6499681,51.9869704 C38.3729203,51.9869704 40.8483098,50.0067062 40.8483098,47.283754 L40.8483098,11.8240182 C40.717303,9.03970843 38.4371207,6.8410205 35.6499681,6.81128929 Z M12.3813303,6.19250114 L15.7850205,6.19250114 C16.3791708,6.12000911 16.85641,5.668 16.9608838,5.0785877 C17.3273713,3.48257859 18.7275809,2.33692027 20.364574,2.2938041 C21.9864055,2.34296128 23.3655308,3.49217312 23.7063144,5.0785877 C23.817303,5.68837358 24.3260501,6.14618679 24.9440091,6.19250114 L28.4714806,6.19250114 L28.4714806,11.1432802 L12.3813303,11.1432802 L12.3813303,6.19250114 Z M38.3729203,47.2838724 C38.3729203,48.6453485 37.0114442,49.5116993 35.6499681,49.5116993 L5.20272437,49.5116993 C3.84124829,49.5116993 2.47977221,48.6453485 2.47977221,47.2838724 L2.47977221,11.8240182 C2.606041,10.4068702 3.78012756,9.31273804 5.20272437,9.28667882 L9.90594077,9.28667882 L9.90594077,12.4429248 C9.97132574,13.1363371 10.5718724,13.6550342 11.2674169,13.6187882 L29.5233257,13.6187882 C30.2316629,13.6575216 30.8510433,13.1459317 30.9466333,12.4429248 L30.9466333,9.28667882 L35.6498497,9.28667882 C37.072328,9.31273804 38.246533,10.4067517 38.3729203,11.8238998 L38.3729203,47.2838724 L38.3729203,47.2838724 Z" id="Shape" fill="#000000" fill-rule="nonzero"></path>
                <path d="M15.6612392,27.6664875 C15.1970296,27.1771663 14.4263872,27.1495672 13.9284191,27.604656 L9.96777221,31.3795718 L8.29690205,29.6467517 C7.83269248,29.1574305 7.06205011,29.1299499 6.564082,29.5849203 C6.08471071,30.0871526 6.08471071,30.8773394 6.564082,31.3795718 L9.10130296,33.9787426 C9.32091116,34.2246469 9.63812301,34.3606287 9.96765376,34.3500866 C10.2941048,34.345467 10.6055125,34.2119727 10.8340046,33.9787426 L15.6610023,29.3993075 C16.1395444,28.960328 16.1715262,28.2164556 15.7324282,27.7380319 C15.7099226,27.7130387 15.6861139,27.6892301 15.6612392,27.6664875 Z" id="Path" fill="#000000" fill-rule="nonzero"></path>
                <path d="M33.4221412,30.3274897 L19.1887107,30.3274897 C18.5051298,30.3274897 17.9510159,30.8816036 17.9510159,31.5651845 C17.9510159,32.2487654 18.5051298,32.8028793 19.1887107,32.8028793 L33.4221412,32.8028793 C34.1057221,32.8028793 34.659836,32.2487654 34.659836,31.5651845 C34.659836,30.8816036 34.1057221,30.3274897 33.4221412,30.3274897 Z" id="Path" fill="#000000" fill-rule="nonzero"></path>
                <path d="M15.6612392,17.7649294 C15.1970296,17.2756082 14.4263872,17.2480091 13.9284191,17.7030979 L9.96777221,21.4780137 L8.29690205,19.7451936 C7.83269248,19.2558724 7.06205011,19.2282733 6.564082,19.6833622 C6.08471071,20.1855945 6.08471071,20.9757813 6.564082,21.4780137 L9.10130296,24.0771845 C9.32091116,24.3230888 9.63812301,24.4590706 9.96765376,24.4485285 C10.2941048,24.4439089 10.6055125,24.3104146 10.8340046,24.0771845 L15.6610023,19.4977494 C16.1395444,19.0587699 16.1715262,18.3148975 15.7324282,17.8364738 C15.7099226,17.8114806 15.6861139,17.787672 15.6612392,17.7649294 Z" id="Path" fill="#000000" fill-rule="nonzero"></path>
                <path d="M33.4221412,20.4259317 L19.1887107,20.4259317 C18.5051298,20.4259317 17.9510159,20.9800456 17.9510159,21.6636264 C17.9510159,22.3472073 18.5051298,22.9013212 19.1887107,22.9013212 L33.4221412,22.9013212 C34.1057221,22.9013212 34.659836,22.3472073 34.659836,21.6636264 C34.659836,20.9800456 34.1057221,20.4259317 33.4221412,20.4259317 Z" id="Path" fill="#000000" fill-rule="nonzero"></path>
                <path d="M15.6612392,37.5679271 C15.1970296,37.0786059 14.4263872,37.0511253 13.9284191,37.5060957 L9.96777221,41.2810114 L8.29690205,39.5481913 C7.83269248,39.0588702 7.06205011,39.0313895 6.564082,39.4863599 C6.08471071,39.9885923 6.08471071,40.778779 6.564082,41.2810114 L9.10130296,43.8801822 C9.32091116,44.1260866 9.63812301,44.2620683 9.96765376,44.2515262 C10.2941048,44.2469066 10.6055125,44.1134123 10.8340046,43.8801822 L15.6610023,39.3007472 C16.1395444,38.8617677 16.1715262,38.1178952 15.7324282,37.6394715 C15.7099226,37.6145968 15.6861139,37.5907882 15.6612392,37.5679271 Z" id="Path" fill="#000000" fill-rule="nonzero"></path>
                <path d="M33.4221412,40.2290478 L19.1887107,40.2290478 C18.5051298,40.2290478 17.9510159,40.7831617 17.9510159,41.4667426 C17.9510159,42.1503235 18.5051298,42.7044374 19.1887107,42.7044374 L33.4221412,42.7044374 C34.1057221,42.7044374 34.659836,42.1503235 34.659836,41.4667426 C34.659836,40.7831617 34.1057221,40.2290478 33.4221412,40.2290478 Z" id="Path" fill="#000000" fill-rule="nonzero"></path>
            </g>
        </g>
    </g>
</svg>