<?xml version="1.0" encoding="UTF-8"?>
<svg width="39px" height="39px" viewBox="0 0 39 39" version="1.1" xmlns="http://www.w3.org/2000/svg" xmlns:xlink="http://www.w3.org/1999/xlink">
    <title>Fill 1</title>
    <g id="Page-1" stroke="none" stroke-width="1" fill="none" fill-rule="evenodd">
        <g id="Home_1" transform="translate(-1151.000000, -4842.000000)" fill="#FFFFFF">
            <g id="Group-21" transform="translate(1049.000000, 4842.212036)">
                <path d="M121.307692,0 C110.814274,0 102.307692,8.55859388 102.307692,19.1161718 C102.307692,28.6576057 109.255718,36.5660258 118.338942,38 L118.338942,24.6419402 L113.514724,24.6419402 L113.514724,19.1161718 L118.338942,19.1161718 L118.338942,14.9046402 C118.338942,10.1136497 121.175509,7.46725461 125.515524,7.46725461 C127.59428,7.46725461 129.76863,7.84061735 129.76863,7.84061735 L129.76863,12.5449878 L127.372774,12.5449878 C125.012507,12.5449878 124.276442,14.0185384 124.276442,15.5302841 L124.276442,19.1161718 L129.545974,19.1161718 L128.703591,24.6419402 L124.276442,24.6419402 L124.276442,38 C133.359667,36.5660258 140.307692,28.6576057 140.307692,19.1161718 C140.307692,8.55859388 131.80111,0 121.307692,0 Z" id="Fill-1"></path>
            </g>
        </g>
    </g>
</svg>