<?xml version="1.0" encoding="UTF-8"?>
<svg width="54px" height="53px" viewBox="0 0 54 53" version="1.1" xmlns="http://www.w3.org/2000/svg" xmlns:xlink="http://www.w3.org/1999/xlink">
    <title>garbage-truck</title>
    <defs>
        <filter id="filter-1">
            <feColorMatrix in="SourceGraphic" type="matrix" values="0 0 0 0 1.000000 0 0 0 0 1.000000 0 0 0 0 1.000000 0 0 0 1.000000 0"></feColorMatrix>
        </filter>
    </defs>
    <g id="Page-1" stroke="none" stroke-width="1" fill="none" fill-rule="evenodd">
        <g id="garbage-truck" transform="translate(-773.000000, -683.000000)" filter="url(#filter-1)">
            <g transform="translate(773.000000, 683.993597)">
                <path d="M53.4618474,34.4157663 L48.2229519,22.1917813 L37.5702486,22.1917813 L37.5702486,14.3505319 L31.4017991,14.3505319 C31.4017991,11.3760846 30.2316756,8.59129102 28.1069061,6.50928249 L25.91167,8.74947516 C27.4294222,10.2366988 28.2652994,12.2258669 28.2652994,14.3504273 L12.5828006,14.3504273 C12.5828006,10.8238515 14.9233613,7.83424453 18.1324187,6.85157916 L17.2365298,9.5390367 L20.2120226,10.5309025 L22.218337,4.51237764 L17.7154734,0.00972314923 L15.4976544,2.22754212 L17.1435849,3.87357719 C12.6878734,5.27161968 9.44630086,9.43950511 9.44630086,14.3505319 L3.41303448,14.3505319 L0,34.8286342 L3.55867262,47.2836747 L8.07659141,47.2836747 C8.77477626,49.9861875 11.2334784,51.9884244 14.1510505,51.9884244 C17.0686226,51.9884244 19.5274293,49.9861875 20.2255096,47.2836747 L34.6321848,47.2836747 C35.3303696,49.9861875 37.7890718,51.9884244 40.7066438,51.9884244 C43.6242159,51.9884244 46.0830226,49.9861875 46.7811029,47.2836747 L53.4618474,47.2836747 L53.4618474,34.4157663 L53.4618474,34.4157663 Z M46.1547439,25.328281 L49.5152943,33.1695304 L37.5702486,33.1695304 L37.5702486,25.328281 L46.1547439,25.328281 Z M27.6086209,17.4870316 C26.3961546,20.253529 23.6328983,22.1917813 20.42405,22.1917813 C17.2152016,22.1917813 14.4519454,20.253529 13.2394791,17.4870316 L27.6086209,17.4870316 Z M14.1510505,48.8520292 C12.4215845,48.8520292 11.0145507,47.4449954 11.0145507,45.7155294 C11.0145507,43.9860634 12.4215845,42.5790296 14.1510505,42.5790296 C15.8805164,42.5790296 17.2875502,43.9860634 17.2875502,45.7155294 C17.2875502,47.4449954 15.8805164,48.8520292 14.1510505,48.8520292 Z M14.1510505,39.4425299 C11.2334784,39.4425299 8.77467171,41.4447668 8.07659141,44.1472795 L5.92453438,44.1472795 L3.2102075,34.6468218 L6.07017252,17.4870316 L9.90370707,17.4870316 C11.256584,22.0165555 15.4605391,25.328281 20.4241545,25.328281 C25.38777,25.328281 29.5917251,22.0165555 30.944602,17.4870316 L34.4338534,17.4870316 L34.4338534,44.1472795 L20.2255096,44.1472795 C19.5274293,41.4446622 17.0686226,39.4425299 14.1510505,39.4425299 Z M40.7067484,48.8520292 C38.9772824,48.8520292 37.5702486,47.4449954 37.5702486,45.7155294 C37.5702486,43.9860634 38.9772824,42.5790296 40.7067484,42.5790296 C42.4362144,42.5790296 43.8432481,43.9860634 43.8432481,45.7155294 C43.8432481,47.4449954 42.4362144,48.8520292 40.7067484,48.8520292 Z M46.7812075,44.1472795 C45.745117,40.1366373 41.1506677,38.2098855 37.5702486,40.2864574 L37.5702486,36.3060301 L50.3253476,36.3060301 L50.3253476,44.1472795 L46.7812075,44.1472795 Z" id="Shape" fill="#000000" fill-rule="nonzero"></path>
            </g>
        </g>
    </g>
</svg>