<?xml version="1.0" encoding="utf-8"?>
<!-- Generator: Adobe Illustrator 25.1.0, SVG Export Plug-In . SVG Version: 6.00 Build 0)  -->
<svg version="1.1" id="Layer_1" xmlns="http://www.w3.org/2000/svg" xmlns:xlink="http://www.w3.org/1999/xlink" x="0px" y="0px"
	 viewBox="0 0 39 39" style="enable-background:new 0 0 39 39;" xml:space="preserve">
<style type="text/css">
	.st0{fill-rule:evenodd;clip-rule:evenodd;fill:#FFFFFF;}
	.st1{filter:url(#filter-1);}
	.st2{filter:url(#Adobe_OpacityMaskFilter);}
	.st3{mask:url(#mask-3_2_);fill-rule:evenodd;clip-rule:evenodd;fill:#00D36C;}
	.st4{fill-rule:evenodd;clip-rule:evenodd;fill:#00D36C;}
</style>
<filter  id="filter-1">
	<feColorMatrix  in="SourceGraphic" type="matrix" values="0 0 0 0 0.000000 0 0 0 0 0.866238 0 0 0 0 0.510910 0 0 0 1.000000 0">
		</feColorMatrix>
</filter>
<g id="Page-1">
	<g id="Home_1" transform="translate(-1100.000000, -4842.000000)">
		<g id="Group-21" transform="translate(1049.000000, 4842.212036)">
			<g id="Group" transform="translate(51.153846, 0.000000)">
				<circle id="Oval" class="st0" cx="19.3" cy="19.3" r="19"/>
				<g id="Group-8" class="st1">
				</g>
			</g>
		</g>
	</g>
</g>
<g transform="translate(5.846178, 5.854442)">
	<g id="Group-3">
		<g id="Clip-2">
		</g>
		<defs>
			<filter id="Adobe_OpacityMaskFilter" filterUnits="userSpaceOnUse" x="1.2" y="0.5" width="24.8" height="26.2">
				<feColorMatrix  type="matrix" values="1 0 0 0 0  0 1 0 0 0  0 0 1 0 0  0 0 0 1 0"/>
			</filter>
		</defs>
		<mask maskUnits="userSpaceOnUse" x="1.2" y="0.5" width="24.8" height="26.2" id="mask-3_2_">
			<g class="st2">
				<polygon id="path-2_2_" class="st0" points="1.2,0.5 26.1,0.5 26.1,26.8 1.2,26.8 				"/>
			</g>
		</mask>
		<path id="Fill-1" class="st3" d="M13.7,0.5c-3.4,0-3.8,0-5.1,0.1c-1.3,0.1-2.2,0.3-3,0.6C4.7,1.5,4,2,3.3,2.7
			C2.6,3.5,2.2,4.2,1.9,5C1.6,5.9,1.4,6.8,1.3,8.2c-0.1,1.4-0.1,1.8-0.1,5.4s0,4,0.1,5.4c0.1,1.4,0.3,2.4,0.6,3.2
			c0.3,0.9,0.7,1.6,1.4,2.3c0.7,0.7,1.4,1.2,2.2,1.5c0.8,0.3,1.7,0.5,3,0.6c1.3,0.1,1.7,0.1,5.1,0.1c3.4,0,3.8,0,5.1-0.1
			c1.3-0.1,2.2-0.3,3-0.6c0.8-0.3,1.5-0.8,2.2-1.5c0.7-0.7,1.1-1.5,1.4-2.3c0.3-0.8,0.5-1.8,0.6-3.2c0.1-1.4,0.1-1.8,0.1-5.4
			c0-3.6,0-4-0.1-5.4c-0.1-1.4-0.3-2.4-0.6-3.2c-0.3-0.9-0.7-1.6-1.4-2.3c-0.7-0.7-1.4-1.2-2.2-1.5c-0.8-0.3-1.7-0.5-3-0.6
			C17.4,0.5,17,0.5,13.7,0.5 M13.7,2.9c3.3,0,3.7,0,5,0.1C19.9,3,20.5,3.2,21,3.4c0.6,0.2,1,0.5,1.4,1c0.4,0.5,0.7,0.9,0.9,1.5
			c0.2,0.5,0.4,1.2,0.4,2.4c0.1,1.4,0.1,1.8,0.1,5.3c0,3.5,0,3.9-0.1,5.3c-0.1,1.3-0.3,2-0.4,2.4c-0.2,0.6-0.5,1-0.9,1.5
			c-0.4,0.5-0.8,0.7-1.4,1c-0.4,0.2-1.1,0.4-2.3,0.5c-1.3,0.1-1.7,0.1-5,0.1s-3.7,0-5-0.1c-1.2-0.1-1.9-0.3-2.3-0.5
			c-0.6-0.2-1-0.5-1.4-1C4.5,22.4,4.2,22,4,21.4c-0.2-0.5-0.4-1.2-0.4-2.4c-0.1-1.4-0.1-1.8-0.1-5.3c0-3.5,0-3.9,0.1-5.3
			c0.1-1.3,0.3-2,0.4-2.4c0.2-0.6,0.5-1,0.9-1.5c0.4-0.5,0.8-0.7,1.4-1C6.8,3.2,7.4,3,8.6,3C9.9,2.9,10.3,2.9,13.7,2.9"/>
	</g>
	<path id="Fill-4" class="st4" d="M13.2,19.2c-2.4,0-4.3-1.9-4.3-4.3s1.9-4.3,4.3-4.3s4.3,1.9,4.3,4.3S15.6,19.2,13.2,19.2
		 M13.2,8.4c-3.6,0-6.6,2.9-6.6,6.6c0,3.6,2.9,6.6,6.6,6.6s6.6-2.9,6.6-6.6C19.8,11.3,16.8,8.4,13.2,8.4"/>
	<path id="Fill-6" class="st4" d="M21.7,7.8c0,0.8-0.7,1.5-1.5,1.5c-0.8,0-1.5-0.7-1.5-1.5s0.7-1.5,1.5-1.5C21,6.4,21.7,7,21.7,7.8"
		/>
</g>
</svg>
