<?xml version="1.0" encoding="utf-8"?>
<!-- Generator: Adobe Illustrator 25.1.0, SVG Export Plug-In . SVG Version: 6.00 Build 0)  -->
<svg version="1.0" id="Layer_1" xmlns="http://www.w3.org/2000/svg" xmlns:xlink="http://www.w3.org/1999/xlink" x="0px" y="0px"
	 viewBox="0 0 38 39" style="enable-background:new 0 0 38 39;" xml:space="preserve">
<style type="text/css">
	.st0{fill-rule:evenodd;clip-rule:evenodd;fill:#FFFFFF;}
	.st1{fill-rule:evenodd;clip-rule:evenodd;fill:#00D877;}
</style>
<g id="Page-1">
	<g id="Home_1" transform="translate(-1049.000000, -4842.000000)">
		<g id="Group-14" transform="translate(1049.000000, 4842.212036)">
			<path id="Fill-1" class="st0" d="M38,19c0,10.49-8.51,19-19,19C8.51,38,0,29.49,0,19C0,8.51,8.51,0,19,0C29.49,0,38,8.51,38,19"
				/>
			<path id="Fill-3" class="st1" d="M20.87,16.91c0.09-0.1,0.13-0.13,0.15-0.17c1.26-1.82,3.06-2.36,5.15-2.04
				c2.42,0.37,3.98,2.05,4.37,4.63c0.09,0.61,0.14,1.22,0.14,1.84c0,2.56-0.01,5.13,0.01,7.69c0,0.29-0.07,0.37-0.37,0.37
				c-1.35-0.02-2.71-0.02-4.06,0c-0.3,0-0.37-0.08-0.37-0.37c0.01-2.39,0.01-4.78,0-7.17c0-0.54-0.04-1.08-0.19-1.61
				c-0.49-1.69-2.43-2.28-3.81-1.16c-0.74,0.61-1.04,1.41-1.03,2.35c0.01,2.26,0,4.51,0,6.77c0,0.3-0.02,0.59,0.01,0.89
				c0.02,0.26-0.09,0.3-0.32,0.3c-1.38-0.01-2.76-0.01-4.14,0c-0.25,0-0.34-0.05-0.34-0.32c0.02-2.03,0.03-4.07,0.03-6.1
				c0-2.5,0-5-0.02-7.51c0-0.27,0.06-0.35,0.34-0.35c1.38,0.02,2.76,0.01,4.14,0c0.25,0,0.32,0.07,0.31,0.31
				C20.86,15.78,20.87,16.3,20.87,16.91"/>
			<path id="Fill-5" class="st1" d="M11.69,21.92c0,2.31,0,4.61,0.01,6.92c0,0.29-0.05,0.39-0.33,0.38c-1.25-0.02-2.49-0.01-3.74,0
				c-0.23,0-0.31-0.06-0.31-0.33c0.01-4.65,0-9.31,0-13.96c0-0.24,0.05-0.32,0.28-0.32c1.27,0.01,2.54,0.01,3.81,0
				c0.25,0,0.29,0.1,0.29,0.35C11.68,17.28,11.69,19.6,11.69,21.92"/>
			<path id="Fill-7" class="st1" d="M10.26,7.31c1.98,0,3.27,1.28,2.8,2.78c-0.35,1.13-1.79,1.78-3.45,1.56
				c-1.76-0.23-2.75-1.63-2.1-2.99C7.91,7.82,8.95,7.31,10.26,7.31"/>
		</g>
	</g>
</g>
</svg>
