<?xml version="1.0" encoding="utf-8"?>
<!-- Generator: Adobe Illustrator 25.1.0, SVG Export Plug-In . SVG Version: 6.00 Build 0)  -->
<svg version="1.0" id="Layer_1" xmlns="http://www.w3.org/2000/svg" xmlns:xlink="http://www.w3.org/1999/xlink" x="0px" y="0px"
	 viewBox="0 0 39 39" style="enable-background:new 0 0 39 39;" xml:space="preserve">
<style type="text/css">
	.st0{fill-rule:evenodd;clip-rule:evenodd;fill:#FFFFFF;}
	.st1{fill-rule:evenodd;clip-rule:evenodd;fill:#00D877;}
</style>
<g id="Page-1">
	<g id="Home_1" transform="translate(-1202.000000, -4842.000000)">
		<g id="Group-21" transform="translate(1049.000000, 4842.212036)">
			<g id="Group-11" transform="translate(153.461538, 0.000000)">
				<path id="Fill-1" class="st0" d="M19,38C8.51,38,0,29.49,0,19S8.51,0,19,0s19,8.51,19,19S29.49,38,19,38z"/>
				<path id="Fill-3" class="st1" d="M15.66,29.23c8.27,0,12.8-6.75,12.8-12.6c0-0.19,0-0.38-0.01-0.57
					c0.88-0.62,1.64-1.4,2.24-2.29c-0.81,0.35-1.67,0.59-2.58,0.7c0.93-0.55,1.64-1.42,1.98-2.45c-0.87,0.51-1.83,0.88-2.86,1.07
					c-0.82-0.86-1.99-1.4-3.28-1.4c-2.48,0-4.5,1.98-4.5,4.43c0,0.35,0.04,0.69,0.12,1.01c-3.74-0.18-7.05-1.95-9.27-4.63
					c-0.39,0.65-0.61,1.41-0.61,2.23c0,1.54,0.79,2.89,2,3.69c-0.74-0.02-1.43-0.22-2.04-0.55c0,0.02,0,0.04,0,0.06
					c0,2.14,1.55,3.93,3.61,4.34c-0.38,0.1-0.78,0.16-1.19,0.16c-0.29,0-0.57-0.03-0.85-0.08c0.57,1.76,2.23,3.04,4.2,3.08
					c-1.54,1.19-3.48,1.9-5.59,1.9c-0.36,0-0.72-0.02-1.07-0.06C10.76,28.5,13.12,29.23,15.66,29.23"/>
			</g>
		</g>
	</g>
</g>
</svg>
