<?xml version="1.0" standalone="no"?>
<!DOCTYPE svg PUBLIC "-//W3C//DTD SVG 20010904//EN"
 "http://www.w3.org/TR/2001/REC-SVG-20010904/DTD/svg10.dtd">
<svg version="1.0" xmlns="http://www.w3.org/2000/svg"
 width="271.000000pt" height="271.000000pt" viewBox="0 0 271.000000 271.000000"
 preserveAspectRatio="xMidYMid meet">
<metadata>
Created by potrace 1.11, written by Peter Selinger 2001-2013
</metadata>
<g transform="translate(0.000000,271.000000) scale(0.100000,-0.100000)"
fill="#000000" stroke="none">
<path d="M13 1771 c-6 -3 -9 -121 -9 -276 l1 -270 175 0 175 0 1 35 c1 62 -5
65 -108 65 l-93 0 -3 63 -3 62 84 0 84 0 0 43 c0 23 -3 47 -8 52 -4 6 -42 9
-83 8 l-76 -1 0 59 0 59 95 0 c52 0 95 3 96 8 0 4 2 16 4 27 2 11 5 31 7 45
l3 25 -167 1 c-91 1 -170 -1 -175 -5z"/>
<path d="M442 1771 c-5 -3 -9 -119 -9 -279 l-1 -273 67 3 66 3 -1 130 c0 72
-3 159 -7 195 -5 60 -1 49 61 -132 l67 -198 92 0 c68 0 93 3 93 13 1 30 1 504
1 523 -1 19 -7 21 -66 20 l-66 0 2 -154 c0 -84 5 -167 9 -183 5 -16 5 -31 2
-33 -4 -2 -36 80 -71 184 l-65 188 -82 -1 c-45 0 -87 -2 -92 -6z"/>
<path d="M934 1745 c5 -25 38 -143 130 -475 l13 -45 96 -3 96 -3 11 43 c6 24
20 75 30 113 53 199 100 383 100 393 0 6 -26 10 -72 9 -78 -2 -78 -2 -92 -87
-8 -52 -67 -345 -70 -347 -3 -3 -6 11 -56 252 -18 83 -34 157 -36 166 -4 14
-18 16 -80 16 l-76 -1 6 -31z"/>
<path d="M1466 1771 c-2 -3 -3 -129 -3 -278 l0 -273 74 0 73 0 0 279 0 279
-71 -1 c-38 0 -71 -3 -73 -6z"/>
<path d="M1716 1771 c-2 -3 -4 -129 -3 -278 l0 -273 74 0 73 0 0 98 c0 54 3
101 6 104 17 17 45 -14 90 -100 l52 -97 81 -3 c44 -2 81 0 81 2 0 3 -30 56
-66 117 -57 97 -64 113 -50 121 86 48 112 173 51 247 -42 50 -93 63 -248 66
-75 2 -139 0 -141 -4z m230 -106 c35 -8 50 -60 30 -107 -9 -20 -66 -39 -96
-31 -18 5 -20 13 -20 77 l0 73 33 -4 c17 -2 42 -6 53 -8z"/>
<path d="M2343 1721 c-9 -31 -46 -156 -83 -278 l-66 -223 77 0 78 0 11 55 c8
40 16 55 28 56 136 7 134 8 147 -68 l7 -43 80 0 c71 0 79 2 74 18 -50 175
-151 511 -157 523 -7 14 -24 17 -94 16 l-86 -1 -16 -55z m136 -193 l19 -88
-49 0 c-27 0 -49 3 -49 7 0 3 10 53 22 111 25 117 24 117 57 -30z"/>
<path d="M110 1150 c0 -5 -9 -6 -19 -3 -13 3 -23 -3 -31 -18 -11 -19 -10 -24
6 -36 15 -11 20 -10 36 3 9 9 15 21 12 25 -3 5 0 9 5 9 10 0 15 -14 12 -32 -2
-14 36 -8 49 8 11 12 11 18 -2 30 -16 16 -68 27 -68 14z"/>
<path d="M400 1152 c-14 -2 -32 -12 -39 -23 -10 -18 -10 -23 6 -35 25 -18 31
-17 38 7 8 23 40 22 40 -1 1 -17 24 -15 43 4 10 10 10 15 -1 30 -13 18 -42 24
-87 18z"/>
<path d="M713 1152 c-42 -4 -64 -39 -38 -58 13 -10 22 -10 35 -1 10 6 17 14
15 17 -2 3 0 12 4 19 6 9 10 5 15 -13 7 -30 40 -35 54 -9 18 32 -20 52 -85 45z"/>
<path d="M1035 1153 c-52 -9 -65 -14 -60 -23 3 -5 0 -12 -6 -15 -6 -5 -3 -13
11 -22 19 -14 23 -13 35 3 8 11 15 25 15 33 0 11 4 9 14 -5 11 -14 11 -21 3
-26 -7 -4 2 -8 19 -8 20 0 34 6 38 16 11 30 -25 54 -69 47z"/>
<path d="M1230 1045 c0 -87 3 -105 15 -105 11 0 15 12 15 45 0 32 4 45 14 45
8 0 26 -20 40 -45 15 -25 33 -45 41 -45 20 0 19 4 -11 52 -21 32 -23 42 -12
49 7 5 16 9 21 9 13 0 7 67 -7 79 -8 7 -38 14 -65 17 l-51 4 0 -105z m89 70
c17 -10 13 -52 -5 -59 -40 -15 -54 -7 -54 33 0 35 2 38 24 36 14 -2 30 -6 35
-10z"/>
<path d="M1426 1142 c-3 -3 -6 -50 -6 -104 l0 -98 55 0 c39 0 55 4 55 13 0 9
-12 12 -40 10 l-40 -3 0 38 c0 38 1 38 35 37 23 -1 35 2 35 11 0 7 -10 13 -22
12 -43 -2 -48 2 -48 32 0 17 6 31 13 31 6 1 23 2 36 3 13 0 26 6 28 12 4 11
-91 17 -101 6z"/>
<path d="M1617 1143 c-40 -10 -64 -113 -37 -163 17 -32 67 -50 102 -38 16 6
27 15 26 20 -4 10 -10 10 -47 1 -34 -9 -61 27 -61 81 0 63 31 92 77 75 13 -5
25 -4 28 1 4 6 -6 15 -20 20 -27 10 -38 11 -68 3z"/>
<path d="M1730 1146 c0 -4 14 -35 31 -69 21 -40 31 -75 31 -99 -1 -28 2 -38
13 -38 10 0 15 11 15 35 0 21 15 65 35 105 27 53 32 70 20 70 -8 0 -26 -23
-41 -52 l-26 -51 -26 48 c-23 42 -52 70 -52 51z"/>
<path d="M1948 1139 c-62 -36 -56 -179 7 -195 39 -10 80 0 83 19 3 16 1 17
-18 7 -51 -27 -98 26 -86 95 9 48 53 78 81 55 10 -8 15 -8 20 1 16 25 -52 39
-87 18z"/>
<path d="M2090 1046 l0 -106 55 0 c38 0 55 4 55 13 0 8 -14 12 -37 12 l-38 0
-5 89 c-3 59 -9 91 -17 94 -10 3 -13 -22 -13 -102z"/>
<path d="M2250 1046 c0 -89 3 -106 15 -106 13 0 15 16 13 102 -2 70 -7 103
-15 106 -10 3 -13 -22 -13 -102z"/>
<path d="M2349 1148 c-1 -2 -2 -49 -3 -105 -1 -78 2 -103 11 -103 9 0 13 23
14 83 l1 82 39 -82 c30 -62 45 -83 59 -83 19 0 20 7 20 106 0 80 -3 105 -12
101 -9 -2 -13 -27 -13 -75 1 -40 -2 -72 -5 -72 -3 0 -22 34 -43 75 -21 44 -43
75 -52 75 -8 0 -16 -1 -16 -2z"/>
<path d="M2593 1140 c-42 -17 -55 -61 -44 -152 3 -20 48 -48 79 -48 56 0 69
13 67 66 -1 46 -2 48 -33 50 -22 2 -32 -2 -32 -12 0 -8 9 -14 21 -14 17 0 20
-5 16 -32 -2 -26 -8 -34 -28 -36 -43 -5 -64 20 -64 78 0 65 27 94 75 80 35
-10 50 4 21 19 -23 13 -48 13 -78 1z"/>
<path d="M172 1074 c-14 -15 -3 -48 20 -58 7 -3 -1 -4 -19 -2 -25 3 -32 0 -36
-16 -14 -51 35 -60 62 -12 9 16 20 32 25 36 11 7 -14 62 -29 65 -6 0 -16 -5
-23 -13z"/>
<path d="M485 1076 c-17 -13 -18 -18 -7 -35 17 -29 15 -34 -9 -28 -14 4 -23
-1 -28 -16 -10 -26 3 -46 27 -42 9 2 20 4 24 4 11 1 41 73 39 91 -5 30 -25 41
-46 26z"/>
<path d="M1097 1076 c-15 -12 -16 -18 -8 -34 6 -11 16 -23 23 -26 7 -3 4 -5
-7 -5 -51 3 -56 0 -53 -28 3 -27 8 -29 48 -24 5 0 19 20 30 43 18 38 19 44 5
65 -18 27 -15 26 -38 9z"/>
<path d="M15 1053 c-5 -21 -2 -31 12 -43 19 -15 23 -22 23 -40 0 -5 15 -10 34
-10 30 0 33 2 28 25 -4 25 -11 29 -46 25 -17 -2 -17 0 -2 21 11 17 13 26 4 36
-18 22 -45 15 -53 -14z"/>
<path d="M323 1058 c-18 -40 40 -115 77 -99 19 8 27 55 8 48 -18 -6 -50 12
-43 24 4 5 11 7 16 4 5 -4 4 5 -3 19 -14 32 -42 34 -55 4z"/>
<path d="M627 1053 c-10 -51 70 -125 95 -87 6 8 5 20 -1 53 -1 2 -7 -1 -14 -7
-8 -7 -18 -8 -27 -1 -13 8 -13 11 2 23 17 12 17 14 0 30 -27 24 -49 20 -55
-11z"/>
<path d="M784 1065 c-4 -8 -1 -21 5 -29 13 -15 5 -26 -21 -26 -14 0 -18 -8
-18 -31 0 -24 3 -30 16 -25 9 3 21 6 28 6 7 0 18 12 24 26 10 20 10 24 0 19
-7 -4 -2 2 10 12 22 18 22 21 8 35 -8 9 -12 18 -9 22 4 3 -4 6 -16 6 -12 0
-24 -7 -27 -15z"/>
<path d="M936 1054 c-6 -23 20 -77 47 -95 16 -11 47 3 47 20 0 29 -20 41 -49
30 -26 -9 -26 -9 -5 9 17 14 19 22 11 40 -14 30 -43 28 -51 -4z"/>
</g>
</svg>
